<?xml version="1.0" encoding="UTF-8"?>
<svg id="Layer_2" data-name="Layer 2" xmlns="http://www.w3.org/2000/svg" viewBox="0 0 1024 1024">
  <defs>
    <style>
      .cls-1 {
        fill: #b5b5b5;
      }

      .cls-2 {
        fill: #eff6ff;
      }

      .cls-3 {
        fill: #fff;
      }

      .cls-4 {
        fill: #39b54a;
      }
    </style>
  </defs>
  <g id="Layer_1-2" data-name="Layer 1">
    <g>
      <g>
        <g>
          <g>
            <path class="cls-2" d="M916.93,980.39H107.07c-34.99,0-63.45-28.47-63.45-63.45V107.07c0-34.99,28.47-63.45,63.45-63.45h809.87c34.99,0,63.45,28.47,63.45,63.45v809.87c0,34.99-28.47,63.45-63.45,63.45ZM107.07,47.97c-32.58,0-59.09,26.51-59.09,59.09v809.87c0,32.58,26.51,59.09,59.09,59.09h809.87c32.58,0,59.09-26.51,59.09-59.09V107.07c0-32.58-26.51-59.09-59.09-59.09H107.07Z"/>
            <path class="cls-2" d="M916.93,1024H107.07c-59.04,0-107.07-48.03-107.07-107.07V107.07C0,48.03,48.03,0,107.07,0h809.87c59.04,0,107.07,48.03,107.07,107.07v809.87c0,59.04-48.03,107.07-107.07,107.07ZM107.07,91.59c-8.54,0-15.48,6.94-15.48,15.48v809.87c0,8.54,6.94,15.48,15.48,15.48h809.87c8.54,0,15.48-6.94,15.48-15.48V107.07c0-8.54-6.94-15.48-15.48-15.48H107.07Z"/>
          </g>
          <rect x="45.79" y="665.22" width="932.41" height="4.36"/>
          <rect x="45.79" y="354.42" width="932.41" height="4.36"/>
          <rect x="665.22" y="45.79" width="4.36" height="932.41"/>
          <rect x="354.42" y="45.79" width="4.36" height="932.41"/>
        </g>
        <g>
          <rect class="cls-3" x="45.79" y="45.79" width="932.42" height="932.42" rx="61.27" ry="61.27"/>
          <rect class="cls-3" x="45.79" y="45.79" width="932.42" height="932.42" rx="61.27" ry="61.27"/>
          <rect class="cls-3" x="45.79" y="45.79" width="932.42" height="932.42" rx="61.27" ry="61.27"/>
        </g>
        <g>
          <g>
            <path class="cls-2" d="M916.93,980.39H107.07c-34.99,0-63.45-28.47-63.45-63.45V107.07c0-34.99,28.47-63.45,63.45-63.45h809.87c34.99,0,63.45,28.47,63.45,63.45v809.87c0,34.99-28.47,63.45-63.45,63.45ZM107.07,47.97c-32.58,0-59.09,26.51-59.09,59.09v809.87c0,32.58,26.51,59.09,59.09,59.09h809.87c32.58,0,59.09-26.51,59.09-59.09V107.07c0-32.58-26.51-59.09-59.09-59.09H107.07Z"/>
            <path class="cls-2" d="M916.93,980.39H107.07c-34.99,0-63.45-28.47-63.45-63.45V107.07c0-34.99,28.47-63.45,63.45-63.45h809.87c34.99,0,63.45,28.47,63.45,63.45v809.87c0,34.99-28.47,63.45-63.45,63.45ZM107.07,47.97c-32.58,0-59.09,26.51-59.09,59.09v809.87c0,32.58,26.51,59.09,59.09,59.09h809.87c32.58,0,59.09-26.51,59.09-59.09V107.07c0-32.58-26.51-59.09-59.09-59.09H107.07Z"/>
            <path class="cls-2" d="M916.93,980.39H107.07c-34.99,0-63.45-28.47-63.45-63.45V107.07c0-34.99,28.47-63.45,63.45-63.45h809.87c34.99,0,63.45,28.47,63.45,63.45v809.87c0,34.99-28.47,63.45-63.45,63.45ZM107.07,47.97c-32.58,0-59.09,26.51-59.09,59.09v809.87c0,32.58,26.51,59.09,59.09,59.09h809.87c32.58,0,59.09-26.51,59.09-59.09V107.07c0-32.58-26.51-59.09-59.09-59.09H107.07Z"/>
          </g>
          <rect class="cls-2" x="45.79" y="665.22" width="932.41" height="4.36"/>
          <rect class="cls-2" x="45.79" y="354.42" width="932.41" height="4.36"/>
          <rect class="cls-2" x="665.22" y="45.79" width="4.36" height="932.41"/>
          <rect class="cls-2" x="354.42" y="45.79" width="4.36" height="932.41"/>
        </g>
      </g>
      <g>
        <circle class="cls-4" cx="199.32" cy="208" r="98.01"/>
        <path class="cls-3" d="M170.57,258.13v-16.88h26.24v-65.31h-1.26l-19.82,25.96-13.39-10.47,23.3-30.7h32.1v80.52h20.65v16.88h-67.82Z"/>
      </g>
      <g>
        <circle class="cls-4" cx="510.73" cy="208" r="98.01"/>
        <path class="cls-3" d="M545.75,258.13h-68.94v-19.12l30-25.68c10.89-9.35,14.65-14.79,14.65-23.02v-1.95c0-7.4-6.56-11.16-12.84-11.16-9.21,0-13.68,6.28-15.63,13.68l-18.28-6.98c4.33-13.54,15.63-24.84,35.87-24.84s33.21,12.42,33.21,29.3-12,26.93-25.96,37.96l-18.14,14.23h46.05v17.58Z"/>
      </g>
      <path class="cls-1" d="M820.33,189.16c10.33,0,14.93-4.47,14.93-10.47v-.98c0-6.98-4.89-11.72-13.12-11.72s-14.93,4.19-19.82,11.58l-13.12-12.28c7.4-9.63,16.88-16.33,33.63-16.33,20.93,0,34.47,10.19,34.47,25.82,0,12.42-8.51,20.1-18.56,21.91v.84c11.58,2.09,20.23,10.05,20.23,23.44,0,17.44-14.93,28.75-36.98,28.75-19.82,0-29.73-8.79-36.01-18.7l15.49-12c4.19,7.96,10.05,13.68,20.52,13.68,9.49,0,15.07-5.16,15.07-13.26v-.84c0-7.95-6.42-12-17.03-12h-8.79v-17.44h9.07Z"/>
      <g>
        <circle class="cls-4" cx="199.32" cy="517.14" r="98.01"/>
        <path class="cls-3" d="M204.48,557.19v-18.7h-42.84v-17.86l37.96-60.84h24.84v62.52h12.28v16.19h-12.28v18.7h-19.95ZM178.38,522.31h26.1v-40.89h-1.4l-24.7,40.89Z"/>
      </g>
      <path class="cls-1" d="M541.71,478.07h-44.24l-2.09,30.84h1.12c3.91-9.21,8.51-15.49,20.93-15.49,16.61,0,30,11.44,30,30.98s-13.4,34.47-37.4,34.47c-18.84,0-28.89-8.79-34.75-18.7l15.21-12c4.19,7.54,9.63,13.68,19.68,13.68s15.21-6.28,15.21-15.77v-1.12c0-8.93-5.58-14.51-14.65-14.51-7.53,0-12.56,3.91-15.07,6.84l-17.16-2.37,3.63-55.12h59.59v18.28Z"/>
      <path d="M789.63,520.21c0-27.35,18.28-49.12,34.89-60.43h28.89c-23.72,17.03-37.96,30.28-41.86,48.84l1.25.42c3.35-7.4,9.07-14.65,21.49-14.65,16.05,0,28.47,11.86,28.47,30.28,0,19.96-14.37,34.19-36.56,34.19s-36.56-15.21-36.56-38.66ZM840.98,527.75v-2.51c0-9.49-5.58-14.79-14.79-14.79s-14.79,5.3-14.79,14.79v2.51c0,9.49,5.58,14.79,14.79,14.79s14.79-5.3,14.79-14.79Z"/>
      <path class="cls-1" d="M180.62,857.27l32.65-80.38h-30.42v17.72h-17.72v-34.75h68.94v18.14l-31.4,79.26h-22.05Z"/>
      <path d="M474.44,830.62c0-12.42,7.54-20.38,19.12-23.58v-1.12c-9.49-3.49-16.19-10.75-16.19-22.05,0-14.93,11.86-25.68,33.35-25.68s33.35,10.75,33.35,25.68c0,11.3-6.7,18.56-16.19,22.05v1.12c11.58,3.21,19.12,11.16,19.12,23.58,0,16.33-13.26,28.33-36.28,28.33s-36.28-12-36.28-28.33ZM525.1,830.48v-2.79c0-7.67-5.16-12.42-14.37-12.42s-14.37,4.74-14.37,12.42v2.79c0,7.67,5.16,12.42,14.37,12.42s14.37-4.74,14.37-12.42ZM524.4,788.19v-2.23c0-7.26-4.88-11.72-13.68-11.72s-13.68,4.47-13.68,11.72v2.23c0,7.26,4.89,11.72,13.68,11.72s13.68-4.47,13.68-11.72Z"/>
      <path d="M826.75,857.27h-28.89c23.72-17.03,37.96-30.28,41.86-48.84l-1.26-.42c-3.35,7.4-9.07,14.65-21.49,14.65-16.05,0-28.47-11.86-28.47-30.28,0-19.96,14.37-34.19,36.56-34.19s36.56,15.21,36.56,38.66c0,27.35-18.28,49.12-34.89,60.43ZM839.87,791.82v-2.51c0-9.49-5.58-14.79-14.79-14.79s-14.79,5.3-14.79,14.79v2.51c0,9.49,5.58,14.79,14.79,14.79s14.79-5.3,14.79-14.79Z"/>
    </g>
  </g>
</svg>