<?xml version="1.0" encoding="UTF-8"?>
<svg id="Layer_2" data-name="Layer 2" xmlns="http://www.w3.org/2000/svg" viewBox="0 0 234.8 234.8">
  <defs>
    <style>
      .cls-1 {
        stroke-width: 21px;
      }

      .cls-1, .cls-2, .cls-3 {
        stroke-miterlimit: 10;
      }

      .cls-1, .cls-2, .cls-3, .cls-4 {
        fill: none;
      }

      .cls-1, .cls-2, .cls-4 {
        stroke: #eff6ff;
      }

      .cls-5 {
        fill: #b5b5b5;
      }

      .cls-6 {
        fill: #fff;
      }

      .cls-7 {
        fill: #39b54a;
      }

      .cls-3 {
        stroke: #000;
      }
    </style>
  </defs>
  <g id="Layer_1-2" data-name="Layer 1">
    <g>
      <g>
        <g>
          <g>
            <rect class="cls-2" x="10.5" y="10.5" width="213.8" height="213.8" rx="14.05" ry="14.05"/>
            <rect class="cls-1" x="10.5" y="10.5" width="213.8" height="213.8" rx="14.05" ry="14.05"/>
          </g>
          <line class="cls-3" x1="10.5" y1="153.03" x2="224.3" y2="153.03"/>
          <line class="cls-3" x1="10.5" y1="81.77" x2="224.3" y2="81.77"/>
          <line class="cls-3" x1="153.03" y1="10.5" x2="153.03" y2="224.3"/>
          <line class="cls-3" x1="81.77" y1="10.5" x2="81.77" y2="224.3"/>
        </g>
        <g>
          <rect class="cls-6" x="10.5" y="10.5" width="213.8" height="213.8" rx="14.05" ry="14.05"/>
          <rect class="cls-6" x="10.5" y="10.5" width="213.8" height="213.8" rx="14.05" ry="14.05"/>
          <rect class="cls-6" x="10.5" y="10.5" width="213.8" height="213.8" rx="14.05" ry="14.05"/>
        </g>
        <g>
          <g>
            <rect class="cls-4" x="10.5" y="10.5" width="213.8" height="213.8" rx="14.05" ry="14.05"/>
            <rect class="cls-4" x="10.5" y="10.5" width="213.8" height="213.8" rx="14.05" ry="14.05"/>
            <rect class="cls-4" x="10.5" y="10.5" width="213.8" height="213.8" rx="14.05" ry="14.05"/>
          </g>
          <line class="cls-4" x1="10.5" y1="153.03" x2="224.3" y2="153.03"/>
          <line class="cls-4" x1="10.5" y1="81.77" x2="224.3" y2="81.77"/>
          <line class="cls-4" x1="153.03" y1="10.5" x2="153.03" y2="224.3"/>
          <line class="cls-4" x1="81.77" y1="10.5" x2="81.77" y2="224.3"/>
        </g>
      </g>
      <g>
        <circle class="cls-7" cx="45.7" cy="47.69" r="22.47"/>
        <path class="cls-6" d="M39.11,59.19v-3.87h6.02v-14.98h-.29l-4.54,5.95-3.07-2.4,5.34-7.04h7.36v18.46h4.74v3.87h-15.55Z"/>
      </g>
      <g>
        <circle class="cls-7" cx="117.11" cy="47.69" r="22.47"/>
        <path class="cls-6" d="M125.14,59.19h-15.81v-4.38l6.88-5.89c2.5-2.14,3.36-3.39,3.36-5.28v-.45c0-1.7-1.5-2.56-2.94-2.56-2.11,0-3.14,1.44-3.58,3.14l-4.19-1.6c.99-3.1,3.58-5.7,8.22-5.7s7.62,2.85,7.62,6.72-2.75,6.18-5.95,8.7l-4.16,3.26h10.56v4.03Z"/>
      </g>
      <path class="cls-5" d="M188.09,43.37c2.37,0,3.42-1.02,3.42-2.4v-.22c0-1.6-1.12-2.69-3.01-2.69s-3.42.96-4.54,2.66l-3.01-2.82c1.7-2.21,3.87-3.74,7.71-3.74,4.8,0,7.9,2.34,7.9,5.92,0,2.85-1.95,4.61-4.26,5.02v.19c2.66.48,4.64,2.3,4.64,5.38,0,4-3.42,6.59-8.48,6.59-4.54,0-6.82-2.02-8.26-4.29l3.55-2.75c.96,1.82,2.3,3.14,4.7,3.14,2.18,0,3.46-1.18,3.46-3.04v-.19c0-1.82-1.47-2.75-3.9-2.75h-2.02v-4h2.08Z"/>
      <g>
        <circle class="cls-7" cx="45.7" cy="118.58" r="22.47"/>
        <path class="cls-6" d="M46.89,127.76v-4.29h-9.82v-4.1l8.7-13.95h5.7v14.33h2.82v3.71h-2.82v4.29h-4.58ZM40.9,119.76h5.98v-9.38h-.32l-5.66,9.38Z"/>
      </g>
      <path class="cls-5" d="M124.21,109.62h-10.14l-.48,7.07h.26c.9-2.11,1.95-3.55,4.8-3.55,3.81,0,6.88,2.62,6.88,7.1s-3.07,7.9-8.58,7.9c-4.32,0-6.62-2.02-7.97-4.29l3.49-2.75c.96,1.73,2.21,3.14,4.51,3.14s3.49-1.44,3.49-3.62v-.26c0-2.05-1.28-3.33-3.36-3.33-1.73,0-2.88.9-3.46,1.57l-3.94-.54.83-12.64h13.66v4.19Z"/>
      <path d="M181.06,119.28c0-6.27,4.19-11.26,8-13.85h6.62c-5.44,3.9-8.7,6.94-9.6,11.2l.29.1c.77-1.7,2.08-3.36,4.93-3.36,3.68,0,6.53,2.72,6.53,6.94,0,4.58-3.3,7.84-8.38,7.84s-8.38-3.49-8.38-8.86ZM192.83,121.01v-.58c0-2.18-1.28-3.39-3.39-3.39s-3.39,1.22-3.39,3.39v.58c0,2.18,1.28,3.39,3.39,3.39s3.39-1.22,3.39-3.39Z"/>
      <path class="cls-5" d="M41.41,196.57l7.49-18.43h-6.98v4.06h-4.06v-7.97h15.81v4.16l-7.2,18.17h-5.06Z"/>
      <path d="M108.79,190.45c0-2.85,1.73-4.67,4.38-5.41v-.26c-2.18-.8-3.71-2.46-3.71-5.06,0-3.42,2.72-5.89,7.65-5.89s7.65,2.46,7.65,5.89c0,2.59-1.54,4.26-3.71,5.06v.26c2.66.74,4.38,2.56,4.38,5.41,0,3.74-3.04,6.5-8.32,6.5s-8.32-2.75-8.32-6.5ZM120.4,190.42v-.64c0-1.76-1.18-2.85-3.3-2.85s-3.3,1.09-3.3,2.85v.64c0,1.76,1.18,2.85,3.3,2.85s3.3-1.09,3.3-2.85ZM120.24,180.73v-.51c0-1.66-1.12-2.69-3.14-2.69s-3.14,1.02-3.14,2.69v.51c0,1.66,1.12,2.69,3.14,2.69s3.14-1.02,3.14-2.69Z"/>
      <path d="M189.57,196.57h-6.62c5.44-3.9,8.7-6.94,9.6-11.2l-.29-.1c-.77,1.7-2.08,3.36-4.93,3.36-3.68,0-6.53-2.72-6.53-6.94,0-4.58,3.3-7.84,8.38-7.84s8.38,3.49,8.38,8.86c0,6.27-4.19,11.26-8,13.85ZM192.57,181.56v-.58c0-2.18-1.28-3.39-3.39-3.39s-3.39,1.22-3.39,3.39v.58c0,2.18,1.28,3.39,3.39,3.39s3.39-1.22,3.39-3.39Z"/>
    </g>
  </g>
</svg>